<svg width="24" height="24" viewBox="0 0 24 24" fill="none" xmlns="http://www.w3.org/2000/svg">
<g id="Layer_1" clip-path="url(#clip0_125_1479)">
<path id="Vector" d="M20 0H4C1.79086 0 0 1.79086 0 4V20C0 22.2091 1.79086 24 4 24H20C22.2091 24 24 22.2091 24 20V4C24 1.79086 22.2091 0 20 0Z" fill="#D9EAFA"/>
<g id="Group">
<path id="Vector_2" d="M17.3352 19.7503H6.66502C6.16392 19.7503 5.69441 19.528 5.37688 19.1401C5.05955 18.7524 4.93438 18.2482 5.03339 17.7569L6.69916 9.49051C6.85509 8.71667 7.54124 8.15485 8.3308 8.15485H15.6695C16.459 8.15485 17.1452 8.71665 17.3011 9.49051L18.9669 17.7569C19.0659 18.2482 18.9407 18.7522 18.6234 19.1401C18.3059 19.5278 17.8363 19.7503 17.3352 19.7503ZM8.33078 9.44091C8.15118 9.44091 7.99524 9.5686 7.95966 9.74463L6.2939 18.011C6.26312 18.1641 6.3297 18.2737 6.37218 18.3254C6.41446 18.3773 6.50887 18.4642 6.66502 18.4642H17.3352C17.4912 18.4642 17.5858 18.3773 17.6281 18.3254C17.6706 18.2737 17.7371 18.1638 17.7064 18.011L16.0406 9.74463C16.005 9.5686 15.8491 9.44091 15.6695 9.44091H8.33078Z" fill="#003E82"/>
<path id="Vector_3" d="M15.5012 7.74992H14.2151C14.2151 6.52875 13.2215 5.53512 12.0003 5.53512C10.7791 5.53512 9.78531 6.52875 9.78531 7.74992H8.49927C8.49927 5.81958 10.0698 4.24907 12.0003 4.24907C13.9309 4.24907 15.5012 5.81958 15.5012 7.74992Z" fill="#003E82"/>
</g>
</g>
<defs>
<clipPath id="clip0_125_1479">
<rect width="24" height="24" fill="white"/>
</clipPath>
</defs>
</svg>
