<svg xmlns="http://www.w3.org/2000/svg" width="32.5" height="32.5" viewBox="0 0 32.5 32.5"><defs><style>.a{fill:#1e4471;stroke:#1e4471;stroke-width:0.5px;}</style></defs><g transform="translate(32.25 32.25) rotate(180)"><g transform="translate(32) rotate(90)"><path class="a" d="M16,0A16,16,0,1,0,32,16,16.017,16.017,0,0,0,16,0Zm0,30.667A14.667,14.667,0,1,1,30.667,16,14.683,14.683,0,0,1,16,30.667Z"/><path class="a" d="M8.656.191a.7.7,0,0,0-.963,0L.2,7.364a.632.632,0,0,0,0,.922l7.494,7.173a.7.7,0,0,0,.963,0,.632.632,0,0,0,0-.922L1.645,7.825,8.656,1.113A.632.632,0,0,0,8.656.191Z" transform="translate(10.58 8.175)"/></g></g></svg>