<svg xmlns="http://www.w3.org/2000/svg" width="17.5" height="21" viewBox="0 0 17.5 21"><defs><style>.a{fill:#78849e;}</style></defs><path class="a" d="M17.313,21H4.188A2.191,2.191,0,0,1,2,18.812V2.187A2.191,2.191,0,0,1,4.188,0H17.313A2.191,2.191,0,0,1,19.5,2.187V18.812A2.191,2.191,0,0,1,17.313,21ZM4.188.875A1.314,1.314,0,0,0,2.875,2.187V18.812a1.314,1.314,0,0,0,1.313,1.313H17.313a1.314,1.314,0,0,0,1.313-1.312V2.187A1.314,1.314,0,0,0,17.313.875Z" transform="translate(-2)"/><path class="a" d="M10.687,9.75a.438.438,0,0,1-.438-.437V8.875H5.875v.438a.438.438,0,0,1-.875,0V8.437A.438.438,0,0,1,5.437,8h5.25a.438.438,0,0,1,.438.437v.875A.438.438,0,0,1,10.687,9.75Z" transform="translate(-2.375 -1)"/><path class="a" d="M8.437,14.125A.438.438,0,0,1,8,13.687V8.437a.438.438,0,0,1,.875,0v5.25A.438.438,0,0,1,8.437,14.125Z" transform="translate(-2.75 -1)"/><path class="a" d="M9.187,14.875H7.437a.438.438,0,1,1,0-.875h1.75a.438.438,0,0,1,0,.875Z" transform="translate(-2.625 -1.75)"/><path class="a" d="M17.937,8.875h-3.5a.438.438,0,1,1,0-.875h3.5a.438.438,0,0,1,0,.875Z" transform="translate(-3.5 -1)"/><path class="a" d="M17.937,11.875h-3.5a.438.438,0,1,1,0-.875h3.5a.438.438,0,0,1,0,.875Z" transform="translate(-3.5 -1.375)"/><path class="a" d="M17.937,14.875h-3.5a.438.438,0,1,1,0-.875h3.5a.438.438,0,0,1,0,.875Z" transform="translate(-3.5 -1.75)"/><path class="a" d="M16.813,17.875H5.437a.438.438,0,0,1,0-.875H16.813a.438.438,0,0,1,0,.875Z" transform="translate(-2.375 -2.125)"/><path class="a" d="M16.813,20.875H5.437a.438.438,0,0,1,0-.875H16.813a.438.438,0,0,1,0,.875Z" transform="translate(-2.375 -2.5)"/></svg>